<svg xmlns="http://www.w3.org/2000/svg" width="750" height="1334" viewBox="0 0 750 1334"><rect width="750" height="1334" fill="#f5f7fa"/><g font-family="sans-serif"><text x="26" y="46" font-size="28" font-weight="700">088 · 多层折返</text><text x="26" y="80" font-size="20" fill="#475569">多层折返 · 第 9 章 / 灯会巡游</text><text x="26" y="115" font-size="19" fill="#087f6d">S 出猫口</text><text x="157" y="115" font-size="19">→ 沿箭头唯一行进</text><text x="359" y="115" font-size="19" fill="#ad3544">L 老巢（失败终点）</text><text x="26" y="151" font-size="17" fill="#9b341b">几何候选 · 待你验收；无分叉/闭环，不是最终美术</text><rect x="1" y="190" width="748" height="970" rx="12" fill="#fff" stroke="#e2e8f0" stroke-width="2"/><path d="M520.00,954.00 L516.00,954.00 L512.01,954.00 L508.01,954.00 L504.01,954.00 L500.02,954.00 L496.02,954.00 L492.02,954.00 L488.02,954.00 L484.03,954.00 L480.03,954.00 L476.03,954.00 L472.04,954.00 L468.04,954.00 L464.04,954.00 L460.05,954.00 L456.05,954.00 L452.05,954.00 L448.06,954.00 L444.06,954.00 L440.06,954.00 L436.06,954.00 L432.07,954.00 L428.07,954.00 L424.07,954.00 L420.08,954.00 L416.08,954.00 L412.08,954.00 L408.09,954.00 L404.09,954.00 L400.09,954.00 L396.10,954.00 L392.10,954.00 L388.10,954.00 L384.10,954.00 L380.11,954.00 L376.11,954.00 L372.11,954.00 L368.12,954.00 L364.12,954.00 L360.12,954.00 L356.13,954.00 L352.13,954.00 L348.13,954.00 L344.14,954.00 L340.14,954.00 L336.14,954.00 L332.14,954.00 L328.15,954.00 L324.15,954.00 L320.15,954.00 L316.16,954.00 L312.16,954.00 L308.16,954.00 L304.17,954.00 L300.17,954.00 L296.17,954.00 L292.18,954.00 L288.18,954.00 L284.18,954.00 L280.18,954.00 L276.19,954.00 L272.19,954.00 L268.19,954.00 L264.20,954.00 L260.20,954.00 L256.20,954.00 L252.21,954.00 L248.21,954.00 L244.21,954.00 L240.22,954.00 L236.22,954.00 L232.22,954.00 L228.23,954.00 L224.23,954.00 L220.23,954.00 L216.23,954.00 L212.24,954.00 L208.24,954.00 L204.24,954.00 L200.25,954.00 L196.25,954.00 L192.25,954.00 L188.26,954.00 L184.26,954.00 L180.26,954.00 L176.27,954.00 L172.27,954.00 L168.27,954.00 L164.27,954.00 L160.28,954.00 L156.28,954.00 L152.28,954.00 L148.29,954.00 L144.29,954.02 L140.30,954.20 L136.32,954.56 L132.36,955.12 L128.43,955.86 L124.55,956.79 L120.71,957.90 L116.93,959.20 L113.21,960.67 L109.57,962.31 L106.01,964.13 L102.54,966.12 L99.17,968.27 L95.91,970.57 L92.76,973.03 L89.73,975.64 L86.83,978.39 L84.06,981.27 L81.43,984.28 L78.95,987.41 L76.62,990.66 L74.44,994.01 L72.43,997.46 L70.59,1001.01 L68.91,1004.64 L67.41,1008.34 L66.09,1012.12 L64.95,1015.95 L63.99,1019.83 L63.22,1023.75 L62.64,1027.70 L62.24,1031.68 L62.04,1035.67 L62.02,1039.66 L62.19,1043.66 L62.56,1047.64 L63.11,1051.60 L63.85,1055.52 L64.78,1059.41 L65.89,1063.25 L67.18,1067.03 L68.65,1070.75 L70.30,1074.39 L72.11,1077.95 L74.10,1081.42 L76.24,1084.79 L78.55,1088.05 L81.00,1091.21 L83.61,1094.24 L86.35,1097.14 L89.23,1099.91 L92.24,1102.54 L95.37,1105.03 L98.62,1107.36 L101.97,1109.53 L105.43,1111.55 L108.97,1113.39 L112.60,1115.07 L116.30,1116.57 L120.07,1117.89 L123.90,1119.04 L127.78,1120.00 L131.70,1120.77 L135.66,1121.36 L139.63,1121.75 L143.62,1121.96 L147.62,1122.00 L151.62,1122.00 L155.61,1122.00 L159.61,1122.00 L163.61,1122.00 L167.60,1122.00 L171.60,1122.00 L175.60,1122.00 L179.59,1122.00 L183.59,1122.00 L187.59,1122.00 L191.59,1122.00 L195.58,1122.00 L199.58,1122.00 L203.58,1122.00 L207.57,1122.00 L211.57,1122.00 L215.57,1122.00 L219.56,1122.00 L223.56,1122.00 L227.56,1122.00 L231.55,1122.00 L235.55,1122.00 L239.55,1122.00 L243.55,1122.00 L247.54,1122.00 L251.54,1122.00 L255.54,1122.00 L259.53,1122.00 L263.53,1122.00 L267.53,1122.00 L271.52,1122.00 L275.52,1122.00 L279.52,1122.00 L283.51,1122.00 L287.51,1122.00 L291.51,1122.00 L295.51,1122.00 L299.50,1122.00 L303.50,1122.00 L307.50,1122.00 L311.49,1122.00 L315.49,1122.00 L319.49,1122.00 L323.48,1122.00 L327.48,1122.00 L331.48,1122.00 L335.47,1122.00 L339.47,1122.00 L343.47,1122.00 L347.47,1122.00 L351.46,1122.00 L355.46,1122.00 L359.46,1122.00 L363.45,1122.00 L367.45,1122.00 L371.45,1122.00 L375.44,1122.00 L379.44,1122.00 L383.44,1122.00 L387.43,1122.00 L391.43,1122.00 L395.43,1122.00 L399.43,1122.00 L403.42,1122.00 L407.42,1122.00 L411.42,1122.00 L415.41,1122.00 L419.41,1122.00 L423.41,1122.00 L427.40,1122.00 L431.40,1122.00 L435.40,1122.00 L439.39,1122.00 L443.39,1122.00 L447.39,1122.00 L451.38,1122.00 L455.38,1122.00 L459.38,1122.00 L463.38,1122.00 L467.37,1122.00 L471.37,1122.00 L475.37,1122.00 L479.36,1122.00 L483.36,1122.00 L487.36,1122.00 L491.35,1122.00 L495.35,1122.00 L499.35,1122.00 L503.34,1122.00 L507.34,1122.00 L511.34,1122.00 L515.34,1122.00 L519.33,1122.00 L523.33,1122.00 L527.33,1122.00 L531.32,1122.00 L535.32,1122.00 L539.32,1122.00 L543.31,1122.00 L547.31,1122.00 L551.31,1122.00 L555.30,1122.00 L559.30,1122.00 L563.30,1122.00 L567.30,1122.00 L571.29,1122.00 L575.29,1122.00 L579.29,1122.00 L583.28,1122.00 L587.28,1122.00 L591.28,1122.00 L595.27,1122.00 L599.27,1122.00 L603.27,1122.00 L607.26,1121.93 L611.25,1121.68 L615.22,1121.24 L619.17,1120.61 L623.08,1119.80 L626.95,1118.80 L630.77,1117.61 L634.53,1116.25 L638.21,1114.71 L641.82,1113.00 L645.35,1111.11 L648.78,1109.06 L652.11,1106.85 L655.33,1104.49 L658.43,1101.97 L661.41,1099.31 L664.27,1096.51 L666.98,1093.57 L669.55,1090.52 L671.98,1087.34 L674.25,1084.05 L676.36,1080.66 L678.30,1077.17 L680.08,1073.59 L681.69,1069.93 L683.12,1066.20 L684.37,1062.40 L685.44,1058.55 L686.33,1054.65 L687.03,1050.72 L687.54,1046.76 L687.86,1042.77 L687.99,1038.78 L688.00,1034.78 L688.00,1030.78 L688.00,1026.79 L688.00,1022.79 L688.00,1018.79 L688.00,1014.80 L688.00,1010.80 L688.00,1006.80 L688.00,1002.81 L688.00,998.81 L688.00,994.81 L688.00,990.81 L688.00,986.82 L688.00,982.82 L688.00,978.82 L688.00,974.83 L688.00,970.83 L688.00,966.83 L688.00,962.84 L688.00,958.84 L688.00,954.84 L688.00,950.85 L688.00,946.85 L688.00,942.85 L688.00,938.85 L688.00,934.86 L688.00,930.86 L688.00,926.86 L688.00,922.87 L688.00,918.87 L688.00,914.87 L688.00,910.88 L688.00,906.88 L688.00,902.88 L688.00,898.89 L688.00,894.89 L688.00,890.89 L688.00,886.89 L688.00,882.90 L688.00,878.90 L688.00,874.90 L688.00,870.91 L687.94,866.91 L687.70,862.92 L687.26,858.95 L686.64,855.00 L685.84,851.09 L684.84,847.22 L683.67,843.40 L682.31,839.64 L680.78,835.95 L679.07,832.33 L677.20,828.80 L675.16,825.37 L672.95,822.04 L670.59,818.81 L668.08,815.70 L665.43,812.71 L662.63,809.86 L659.71,807.14 L656.65,804.56 L653.48,802.13 L650.20,799.85 L646.81,797.73 L643.32,795.78 L639.75,793.99 L636.09,792.38 L632.36,790.94 L628.57,789.68 L624.72,788.60 L620.82,787.71 L616.89,787.00 L612.93,786.48 L608.95,786.15 L604.95,786.01 L600.96,786.00 L596.96,786.00 L592.96,786.00 L588.96,786.00 L584.97,786.00 L580.97,786.00 L576.97,786.00 L572.98,786.00 L568.98,786.00 L564.98,786.00 L560.99,786.00 L556.99,786.00 L552.99,786.00 L549.00,786.00 L545.00,786.00 L541.00,786.00 L537.00,786.00 L533.01,786.00 L529.01,786.00 L525.01,786.00 L521.02,786.00 L517.02,786.00 L513.02,786.00 L509.03,786.00 L505.03,786.00 L501.03,786.00 L497.04,786.00 L493.04,786.00 L489.04,786.00 L485.05,786.00 L481.05,786.00 L477.05,786.00 L473.05,786.00 L469.06,786.00 L465.06,786.00 L461.06,786.00 L457.07,786.00 L453.07,786.00 L449.07,786.00 L445.08,786.00 L441.08,786.00 L437.08,786.00 L433.09,786.00 L429.09,786.00 L425.09,786.00 L421.09,786.00 L417.10,786.00 L413.10,786.00 L409.10,786.00 L405.11,786.00 L401.11,786.00 L397.11,786.00 L393.12,786.00 L389.12,786.00 L385.12,786.00 L381.13,786.00 L377.13,786.00 L373.13,786.00 L369.13,786.00 L365.14,786.00 L361.14,786.00 L357.14,786.00 L353.15,786.00 L349.15,786.00 L345.15,786.00 L341.16,786.00 L337.16,786.00 L333.16,786.00 L329.17,786.00 L325.17,786.00 L321.17,786.00 L317.17,786.00 L313.18,785.99 L309.18,785.86 L305.20,785.53 L301.24,785.02 L297.30,784.32 L293.41,783.43 L289.56,782.36 L285.76,781.11 L282.03,779.67 L278.37,778.06 L274.79,776.28 L271.31,774.33 L267.91,772.22 L264.63,769.95 L261.45,767.52 L258.39,764.95 L255.46,762.23 L252.66,759.38 L250.00,756.40 L247.49,753.29 L245.12,750.07 L242.91,746.74 L240.87,743.31 L238.98,739.78 L237.27,736.17 L235.73,732.48 L234.37,728.73 L233.19,724.91 L232.19,721.04 L231.38,717.13 L230.75,713.18 L230.32,709.21 L230.07,705.22 L230.00,701.22 L230.00,697.23 L230.00,693.23 L230.00,689.23 L230.00,685.24 L230.00,681.24 L230.00,677.24 L230.00,673.24 L230.00,669.25 L230.00,665.25 L230.00,661.25 L230.00,657.26 L230.00,653.26 L230.00,649.26 L230.05,645.27 L230.28,641.28 L230.69,637.30 L231.29,633.35 L232.08,629.43 L233.06,625.56 L234.22,621.73 L235.56,617.97 L237.07,614.27 L238.77,610.65 L240.63,607.11 L242.66,603.67 L244.84,600.33 L247.19,597.09 L249.69,593.97 L252.33,590.97 L255.11,588.11 L258.03,585.37 L261.07,582.78 L264.23,580.34 L267.51,578.05 L270.89,575.91 L274.37,573.94 L277.93,572.14 L281.58,570.51 L285.30,569.06 L289.09,567.78 L292.93,566.69 L296.83,565.78 L300.76,565.06 L304.72,564.52 L308.70,564.17 L312.69,564.02 L316.69,564.00 L320.69,564.00 L324.68,564.00 L328.68,564.00 L332.68,564.00 L336.67,564.00 L340.67,564.00 L344.67,564.00 L348.66,564.00 L352.66,564.00 L356.66,564.00 L360.65,564.00 L364.65,564.00 L368.65,564.00 L372.65,564.00 L376.64,564.00 L380.64,564.00 L384.64,564.00 L388.63,564.00 L392.63,564.00 L396.63,564.00 L400.62,564.00 L404.62,564.00 L408.62,564.00 L412.61,564.00 L416.61,564.00 L420.61,564.00 L424.61,564.00 L428.60,564.00 L432.60,564.00 L436.60,563.99 L440.59,563.87 L444.57,563.56 L448.54,563.05 L452.48,562.36 L456.37,561.49 L460.23,560.43 L464.03,559.18 L467.76,557.76 L471.42,556.16 L475.01,554.39 L478.50,552.45 L481.90,550.35 L485.19,548.08 L488.37,545.67 L491.44,543.10 L494.38,540.39 L497.18,537.55 L499.85,534.57 L502.38,531.47 L504.75,528.26 L506.97,524.93 L509.02,521.51 L510.91,517.99 L512.64,514.38 L514.19,510.70 L515.56,506.94 L516.75,503.13 L517.76,499.26 L518.58,495.35 L519.22,491.40 L519.67,487.43 L519.92,483.45 L519.99,479.45 L519.87,475.46 L519.56,471.47 L519.06,467.51 L518.37,463.57 L517.50,459.67 L516.44,455.82 L515.20,452.02 L513.78,448.28 L512.18,444.62 L510.41,441.04 L508.47,437.54 L506.37,434.14 L504.11,430.85 L501.70,427.66 L499.13,424.60 L496.42,421.66 L493.58,418.85 L490.61,416.18 L487.51,413.65 L484.30,411.28 L480.97,409.06 L477.55,407.00 L474.03,405.11 L470.42,403.38 L466.74,401.83 L462.99,400.46 L459.17,399.26 L455.31,398.25 L451.39,397.43 L447.45,396.79 L443.48,396.34 L439.49,396.08 L435.50,396.00 L431.50,396.00 L427.50,396.00 L423.50,396.00 L419.51,396.00 L415.51,396.00 L411.51,396.00 L407.52,396.00 L403.52,396.00 L399.52,396.00 L395.53,396.00 L391.53,396.00 L387.53,396.00 L383.54,396.00 L379.54,396.00 L375.54,396.00 L371.54,396.00 L367.55,396.00 L363.55,396.00 L359.55,396.00 L355.56,396.00 L351.56,396.00 L347.56,396.00 L343.57,396.00 L339.57,396.00 L335.57,396.00 L331.58,396.00 L327.58,396.00 L323.58,396.00 L319.58,396.00 L315.59,396.00 L311.59,396.00 L307.59,396.00 L303.60,396.00 L299.60,396.00 L295.60,396.00 L291.61,396.00 L287.61,396.00 L283.61,396.00 L279.62,396.00 L275.62,396.00 L271.62,396.00 L267.62,396.00 L263.63,396.00 L259.63,396.00 L255.63,396.00 L251.64,396.00 L247.64,396.00 L243.64,396.00 L239.65,396.00 L235.65,396.00 L231.65,396.00 L227.66,396.00 L223.66,396.00 L219.66,396.00 L215.66,396.00 L211.67,396.00 L207.67,396.00 L203.67,396.00 L199.68,396.00 L195.68,396.00 L191.68,396.00 L187.69,396.00 L183.69,396.00 L179.69,396.00 L175.70,396.00 L171.70,396.00 L167.70,396.00 L163.70,396.00 L159.71,396.00 L155.71,396.00 L151.71,396.00 L147.72,396.00 L143.72,396.03 L139.73,396.24 L135.75,396.63 L131.80,397.21 L127.88,397.98 L124.00,398.94 L120.16,400.07 L116.39,401.39 L112.69,402.89 L109.06,404.56 L105.51,406.41 L102.06,408.41 L98.70,410.59 L95.45,412.91 L92.32,415.39 L89.31,418.02 L86.42,420.79 L83.67,423.69 L81.07,426.72 L78.60,429.87 L76.30,433.13 L74.15,436.50 L72.16,439.96 L70.34,443.52 L68.69,447.16 L67.21,450.88 L65.92,454.66 L64.80,458.50 L63.87,462.38 L63.13,466.31 L62.57,470.27 L62.20,474.24 L62.02,478.24 L62.00,482.23 L62.00,486.23 L62.00,490.23 L62.00,494.23 L62.00,498.22 L62.00,502.22 L62.00,506.22 L62.00,510.21 L62.00,514.21 L62.00,518.21 L62.00,522.20 L62.00,526.20 L62.00,530.20 L62.00,534.19 L62.00,538.19 L62.00,542.19 L62.00,546.18 L62.00,550.18 L62.00,554.18 L62.00,558.18 L62.00,562.17 L62.00,566.17 L62.00,570.17 L62.00,574.16 L62.00,578.16 L62.00,582.16 L62.00,586.15 L62.00,590.15 L62.00,594.15 L62.00,598.14 L62.00,602.14 L62.00,606.14 L62.00,610.14 L62.00,614.13 L62.00,618.13 L62.00,622.13 L62.00,626.12 L62.00,630.12 L62.00,634.12 L62.00,638.11 L62.00,642.11 L62.00,646.11 L62.00,650.10 L62.00,654.10 L62.00,658.10 L62.00,662.10 L62.00,666.09 L62.00,670.09 L62.00,674.09 L62.00,678.08 L62.00,682.08 L62.00,686.08 L62.00,690.07 L62.00,694.07 L62.00,698.07 L62.00,702.06 L62.00,706.06 L62.00,710.06 L62.00,714.06 L62.00,718.05 L62.00,722.05 L62.00,726.05 L62.00,730.04 L62.00,734.04 L62.00,738.04 L62.00,742.03 L62.00,746.03 L62.00,750.03 L62.00,754.02 L62.00,758.02 L62.00,762.02 L62.00,766.02 L62.00,770.01 L62.00,774.01 L62.00,778.01 L62.00,782.00 L62.00,786.00" fill="none" stroke="#a6b1bf" stroke-width="72" stroke-linejoin="round" stroke-linecap="butt"/><path d="M520.00,954.00 L516.00,954.00 L512.01,954.00 L508.01,954.00 L504.01,954.00 L500.02,954.00 L496.02,954.00 L492.02,954.00 L488.02,954.00 L484.03,954.00 L480.03,954.00 L476.03,954.00 L472.04,954.00 L468.04,954.00 L464.04,954.00 L460.05,954.00 L456.05,954.00 L452.05,954.00 L448.06,954.00 L444.06,954.00 L440.06,954.00 L436.06,954.00 L432.07,954.00 L428.07,954.00 L424.07,954.00 L420.08,954.00 L416.08,954.00 L412.08,954.00 L408.09,954.00 L404.09,954.00 L400.09,954.00 L396.10,954.00 L392.10,954.00 L388.10,954.00 L384.10,954.00 L380.11,954.00 L376.11,954.00 L372.11,954.00 L368.12,954.00 L364.12,954.00 L360.12,954.00 L356.13,954.00 L352.13,954.00 L348.13,954.00 L344.14,954.00 L340.14,954.00 L336.14,954.00 L332.14,954.00 L328.15,954.00 L324.15,954.00 L320.15,954.00 L316.16,954.00 L312.16,954.00 L308.16,954.00 L304.17,954.00 L300.17,954.00 L296.17,954.00 L292.18,954.00 L288.18,954.00 L284.18,954.00 L280.18,954.00 L276.19,954.00 L272.19,954.00 L268.19,954.00 L264.20,954.00 L260.20,954.00 L256.20,954.00 L252.21,954.00 L248.21,954.00 L244.21,954.00 L240.22,954.00 L236.22,954.00 L232.22,954.00 L228.23,954.00 L224.23,954.00 L220.23,954.00 L216.23,954.00 L212.24,954.00 L208.24,954.00 L204.24,954.00 L200.25,954.00 L196.25,954.00 L192.25,954.00 L188.26,954.00 L184.26,954.00 L180.26,954.00 L176.27,954.00 L172.27,954.00 L168.27,954.00 L164.27,954.00 L160.28,954.00 L156.28,954.00 L152.28,954.00 L148.29,954.00 L144.29,954.02 L140.30,954.20 L136.32,954.56 L132.36,955.12 L128.43,955.86 L124.55,956.79 L120.71,957.90 L116.93,959.20 L113.21,960.67 L109.57,962.31 L106.01,964.13 L102.54,966.12 L99.17,968.27 L95.91,970.57 L92.76,973.03 L89.73,975.64 L86.83,978.39 L84.06,981.27 L81.43,984.28 L78.95,987.41 L76.62,990.66 L74.44,994.01 L72.43,997.46 L70.59,1001.01 L68.91,1004.64 L67.41,1008.34 L66.09,1012.12 L64.95,1015.95 L63.99,1019.83 L63.22,1023.75 L62.64,1027.70 L62.24,1031.68 L62.04,1035.67 L62.02,1039.66 L62.19,1043.66 L62.56,1047.64 L63.11,1051.60 L63.85,1055.52 L64.78,1059.41 L65.89,1063.25 L67.18,1067.03 L68.65,1070.75 L70.30,1074.39 L72.11,1077.95 L74.10,1081.42 L76.24,1084.79 L78.55,1088.05 L81.00,1091.21 L83.61,1094.24 L86.35,1097.14 L89.23,1099.91 L92.24,1102.54 L95.37,1105.03 L98.62,1107.36 L101.97,1109.53 L105.43,1111.55 L108.97,1113.39 L112.60,1115.07 L116.30,1116.57 L120.07,1117.89 L123.90,1119.04 L127.78,1120.00 L131.70,1120.77 L135.66,1121.36 L139.63,1121.75 L143.62,1121.96 L147.62,1122.00 L151.62,1122.00 L155.61,1122.00 L159.61,1122.00 L163.61,1122.00 L167.60,1122.00 L171.60,1122.00 L175.60,1122.00 L179.59,1122.00 L183.59,1122.00 L187.59,1122.00 L191.59,1122.00 L195.58,1122.00 L199.58,1122.00 L203.58,1122.00 L207.57,1122.00 L211.57,1122.00 L215.57,1122.00 L219.56,1122.00 L223.56,1122.00 L227.56,1122.00 L231.55,1122.00 L235.55,1122.00 L239.55,1122.00 L243.55,1122.00 L247.54,1122.00 L251.54,1122.00 L255.54,1122.00 L259.53,1122.00 L263.53,1122.00 L267.53,1122.00 L271.52,1122.00 L275.52,1122.00 L279.52,1122.00 L283.51,1122.00 L287.51,1122.00 L291.51,1122.00 L295.51,1122.00 L299.50,1122.00 L303.50,1122.00 L307.50,1122.00 L311.49,1122.00 L315.49,1122.00 L319.49,1122.00 L323.48,1122.00 L327.48,1122.00 L331.48,1122.00 L335.47,1122.00 L339.47,1122.00 L343.47,1122.00 L347.47,1122.00 L351.46,1122.00 L355.46,1122.00 L359.46,1122.00 L363.45,1122.00 L367.45,1122.00 L371.45,1122.00 L375.44,1122.00 L379.44,1122.00 L383.44,1122.00 L387.43,1122.00 L391.43,1122.00 L395.43,1122.00 L399.43,1122.00 L403.42,1122.00 L407.42,1122.00 L411.42,1122.00 L415.41,1122.00 L419.41,1122.00 L423.41,1122.00 L427.40,1122.00 L431.40,1122.00 L435.40,1122.00 L439.39,1122.00 L443.39,1122.00 L447.39,1122.00 L451.38,1122.00 L455.38,1122.00 L459.38,1122.00 L463.38,1122.00 L467.37,1122.00 L471.37,1122.00 L475.37,1122.00 L479.36,1122.00 L483.36,1122.00 L487.36,1122.00 L491.35,1122.00 L495.35,1122.00 L499.35,1122.00 L503.34,1122.00 L507.34,1122.00 L511.34,1122.00 L515.34,1122.00 L519.33,1122.00 L523.33,1122.00 L527.33,1122.00 L531.32,1122.00 L535.32,1122.00 L539.32,1122.00 L543.31,1122.00 L547.31,1122.00 L551.31,1122.00 L555.30,1122.00 L559.30,1122.00 L563.30,1122.00 L567.30,1122.00 L571.29,1122.00 L575.29,1122.00 L579.29,1122.00 L583.28,1122.00 L587.28,1122.00 L591.28,1122.00 L595.27,1122.00 L599.27,1122.00 L603.27,1122.00 L607.26,1121.93 L611.25,1121.68 L615.22,1121.24 L619.17,1120.61 L623.08,1119.80 L626.95,1118.80 L630.77,1117.61 L634.53,1116.25 L638.21,1114.71 L641.82,1113.00 L645.35,1111.11 L648.78,1109.06 L652.11,1106.85 L655.33,1104.49 L658.43,1101.97 L661.41,1099.31 L664.27,1096.51 L666.98,1093.57 L669.55,1090.52 L671.98,1087.34 L674.25,1084.05 L676.36,1080.66 L678.30,1077.17 L680.08,1073.59 L681.69,1069.93 L683.12,1066.20 L684.37,1062.40 L685.44,1058.55 L686.33,1054.65 L687.03,1050.72 L687.54,1046.76 L687.86,1042.77 L687.99,1038.78 L688.00,1034.78 L688.00,1030.78 L688.00,1026.79 L688.00,1022.79 L688.00,1018.79 L688.00,1014.80 L688.00,1010.80 L688.00,1006.80 L688.00,1002.81 L688.00,998.81 L688.00,994.81 L688.00,990.81 L688.00,986.82 L688.00,982.82 L688.00,978.82 L688.00,974.83 L688.00,970.83 L688.00,966.83 L688.00,962.84 L688.00,958.84 L688.00,954.84 L688.00,950.85 L688.00,946.85 L688.00,942.85 L688.00,938.85 L688.00,934.86 L688.00,930.86 L688.00,926.86 L688.00,922.87 L688.00,918.87 L688.00,914.87 L688.00,910.88 L688.00,906.88 L688.00,902.88 L688.00,898.89 L688.00,894.89 L688.00,890.89 L688.00,886.89 L688.00,882.90 L688.00,878.90 L688.00,874.90 L688.00,870.91 L687.94,866.91 L687.70,862.92 L687.26,858.95 L686.64,855.00 L685.84,851.09 L684.84,847.22 L683.67,843.40 L682.31,839.64 L680.78,835.95 L679.07,832.33 L677.20,828.80 L675.16,825.37 L672.95,822.04 L670.59,818.81 L668.08,815.70 L665.43,812.71 L662.63,809.86 L659.71,807.14 L656.65,804.56 L653.48,802.13 L650.20,799.85 L646.81,797.73 L643.32,795.78 L639.75,793.99 L636.09,792.38 L632.36,790.94 L628.57,789.68 L624.72,788.60 L620.82,787.71 L616.89,787.00 L612.93,786.48 L608.95,786.15 L604.95,786.01 L600.96,786.00 L596.96,786.00 L592.96,786.00 L588.96,786.00 L584.97,786.00 L580.97,786.00 L576.97,786.00 L572.98,786.00 L568.98,786.00 L564.98,786.00 L560.99,786.00 L556.99,786.00 L552.99,786.00 L549.00,786.00 L545.00,786.00 L541.00,786.00 L537.00,786.00 L533.01,786.00 L529.01,786.00 L525.01,786.00 L521.02,786.00 L517.02,786.00 L513.02,786.00 L509.03,786.00 L505.03,786.00 L501.03,786.00 L497.04,786.00 L493.04,786.00 L489.04,786.00 L485.05,786.00 L481.05,786.00 L477.05,786.00 L473.05,786.00 L469.06,786.00 L465.06,786.00 L461.06,786.00 L457.07,786.00 L453.07,786.00 L449.07,786.00 L445.08,786.00 L441.08,786.00 L437.08,786.00 L433.09,786.00 L429.09,786.00 L425.09,786.00 L421.09,786.00 L417.10,786.00 L413.10,786.00 L409.10,786.00 L405.11,786.00 L401.11,786.00 L397.11,786.00 L393.12,786.00 L389.12,786.00 L385.12,786.00 L381.13,786.00 L377.13,786.00 L373.13,786.00 L369.13,786.00 L365.14,786.00 L361.14,786.00 L357.14,786.00 L353.15,786.00 L349.15,786.00 L345.15,786.00 L341.16,786.00 L337.16,786.00 L333.16,786.00 L329.17,786.00 L325.17,786.00 L321.17,786.00 L317.17,786.00 L313.18,785.99 L309.18,785.86 L305.20,785.53 L301.24,785.02 L297.30,784.32 L293.41,783.43 L289.56,782.36 L285.76,781.11 L282.03,779.67 L278.37,778.06 L274.79,776.28 L271.31,774.33 L267.91,772.22 L264.63,769.95 L261.45,767.52 L258.39,764.95 L255.46,762.23 L252.66,759.38 L250.00,756.40 L247.49,753.29 L245.12,750.07 L242.91,746.74 L240.87,743.31 L238.98,739.78 L237.27,736.17 L235.73,732.48 L234.37,728.73 L233.19,724.91 L232.19,721.04 L231.38,717.13 L230.75,713.18 L230.32,709.21 L230.07,705.22 L230.00,701.22 L230.00,697.23 L230.00,693.23 L230.00,689.23 L230.00,685.24 L230.00,681.24 L230.00,677.24 L230.00,673.24 L230.00,669.25 L230.00,665.25 L230.00,661.25 L230.00,657.26 L230.00,653.26 L230.00,649.26 L230.05,645.27 L230.28,641.28 L230.69,637.30 L231.29,633.35 L232.08,629.43 L233.06,625.56 L234.22,621.73 L235.56,617.97 L237.07,614.27 L238.77,610.65 L240.63,607.11 L242.66,603.67 L244.84,600.33 L247.19,597.09 L249.69,593.97 L252.33,590.97 L255.11,588.11 L258.03,585.37 L261.07,582.78 L264.23,580.34 L267.51,578.05 L270.89,575.91 L274.37,573.94 L277.93,572.14 L281.58,570.51 L285.30,569.06 L289.09,567.78 L292.93,566.69 L296.83,565.78 L300.76,565.06 L304.72,564.52 L308.70,564.17 L312.69,564.02 L316.69,564.00 L320.69,564.00 L324.68,564.00 L328.68,564.00 L332.68,564.00 L336.67,564.00 L340.67,564.00 L344.67,564.00 L348.66,564.00 L352.66,564.00 L356.66,564.00 L360.65,564.00 L364.65,564.00 L368.65,564.00 L372.65,564.00 L376.64,564.00 L380.64,564.00 L384.64,564.00 L388.63,564.00 L392.63,564.00 L396.63,564.00 L400.62,564.00 L404.62,564.00 L408.62,564.00 L412.61,564.00 L416.61,564.00 L420.61,564.00 L424.61,564.00 L428.60,564.00 L432.60,564.00 L436.60,563.99 L440.59,563.87 L444.57,563.56 L448.54,563.05 L452.48,562.36 L456.37,561.49 L460.23,560.43 L464.03,559.18 L467.76,557.76 L471.42,556.16 L475.01,554.39 L478.50,552.45 L481.90,550.35 L485.19,548.08 L488.37,545.67 L491.44,543.10 L494.38,540.39 L497.18,537.55 L499.85,534.57 L502.38,531.47 L504.75,528.26 L506.97,524.93 L509.02,521.51 L510.91,517.99 L512.64,514.38 L514.19,510.70 L515.56,506.94 L516.75,503.13 L517.76,499.26 L518.58,495.35 L519.22,491.40 L519.67,487.43 L519.92,483.45 L519.99,479.45 L519.87,475.46 L519.56,471.47 L519.06,467.51 L518.37,463.57 L517.50,459.67 L516.44,455.82 L515.20,452.02 L513.78,448.28 L512.18,444.62 L510.41,441.04 L508.47,437.54 L506.37,434.14 L504.11,430.85 L501.70,427.66 L499.13,424.60 L496.42,421.66 L493.58,418.85 L490.61,416.18 L487.51,413.65 L484.30,411.28 L480.97,409.06 L477.55,407.00 L474.03,405.11 L470.42,403.38 L466.74,401.83 L462.99,400.46 L459.17,399.26 L455.31,398.25 L451.39,397.43 L447.45,396.79 L443.48,396.34 L439.49,396.08 L435.50,396.00 L431.50,396.00 L427.50,396.00 L423.50,396.00 L419.51,396.00 L415.51,396.00 L411.51,396.00 L407.52,396.00 L403.52,396.00 L399.52,396.00 L395.53,396.00 L391.53,396.00 L387.53,396.00 L383.54,396.00 L379.54,396.00 L375.54,396.00 L371.54,396.00 L367.55,396.00 L363.55,396.00 L359.55,396.00 L355.56,396.00 L351.56,396.00 L347.56,396.00 L343.57,396.00 L339.57,396.00 L335.57,396.00 L331.58,396.00 L327.58,396.00 L323.58,396.00 L319.58,396.00 L315.59,396.00 L311.59,396.00 L307.59,396.00 L303.60,396.00 L299.60,396.00 L295.60,396.00 L291.61,396.00 L287.61,396.00 L283.61,396.00 L279.62,396.00 L275.62,396.00 L271.62,396.00 L267.62,396.00 L263.63,396.00 L259.63,396.00 L255.63,396.00 L251.64,396.00 L247.64,396.00 L243.64,396.00 L239.65,396.00 L235.65,396.00 L231.65,396.00 L227.66,396.00 L223.66,396.00 L219.66,396.00 L215.66,396.00 L211.67,396.00 L207.67,396.00 L203.67,396.00 L199.68,396.00 L195.68,396.00 L191.68,396.00 L187.69,396.00 L183.69,396.00 L179.69,396.00 L175.70,396.00 L171.70,396.00 L167.70,396.00 L163.70,396.00 L159.71,396.00 L155.71,396.00 L151.71,396.00 L147.72,396.00 L143.72,396.03 L139.73,396.24 L135.75,396.63 L131.80,397.21 L127.88,397.98 L124.00,398.94 L120.16,400.07 L116.39,401.39 L112.69,402.89 L109.06,404.56 L105.51,406.41 L102.06,408.41 L98.70,410.59 L95.45,412.91 L92.32,415.39 L89.31,418.02 L86.42,420.79 L83.67,423.69 L81.07,426.72 L78.60,429.87 L76.30,433.13 L74.15,436.50 L72.16,439.96 L70.34,443.52 L68.69,447.16 L67.21,450.88 L65.92,454.66 L64.80,458.50 L63.87,462.38 L63.13,466.31 L62.57,470.27 L62.20,474.24 L62.02,478.24 L62.00,482.23 L62.00,486.23 L62.00,490.23 L62.00,494.23 L62.00,498.22 L62.00,502.22 L62.00,506.22 L62.00,510.21 L62.00,514.21 L62.00,518.21 L62.00,522.20 L62.00,526.20 L62.00,530.20 L62.00,534.19 L62.00,538.19 L62.00,542.19 L62.00,546.18 L62.00,550.18 L62.00,554.18 L62.00,558.18 L62.00,562.17 L62.00,566.17 L62.00,570.17 L62.00,574.16 L62.00,578.16 L62.00,582.16 L62.00,586.15 L62.00,590.15 L62.00,594.15 L62.00,598.14 L62.00,602.14 L62.00,606.14 L62.00,610.14 L62.00,614.13 L62.00,618.13 L62.00,622.13 L62.00,626.12 L62.00,630.12 L62.00,634.12 L62.00,638.11 L62.00,642.11 L62.00,646.11 L62.00,650.10 L62.00,654.10 L62.00,658.10 L62.00,662.10 L62.00,666.09 L62.00,670.09 L62.00,674.09 L62.00,678.08 L62.00,682.08 L62.00,686.08 L62.00,690.07 L62.00,694.07 L62.00,698.07 L62.00,702.06 L62.00,706.06 L62.00,710.06 L62.00,714.06 L62.00,718.05 L62.00,722.05 L62.00,726.05 L62.00,730.04 L62.00,734.04 L62.00,738.04 L62.00,742.03 L62.00,746.03 L62.00,750.03 L62.00,754.02 L62.00,758.02 L62.00,762.02 L62.00,766.02 L62.00,770.01 L62.00,774.01 L62.00,778.01 L62.00,782.00 L62.00,786.00" fill="none" stroke="#e8ecf1" stroke-width="66" stroke-linejoin="round" stroke-linecap="butt"/><path d="M62.00,646.00 L62.00,650.00 L62.00,654.00 L62.00,658.00 L62.00,662.00 L62.00,666.00 L62.00,670.00 L62.00,674.00 L62.00,678.00 L62.00,682.00 L62.00,686.00 L62.00,690.00 L62.00,694.00 L62.00,698.00 L62.00,702.00 L62.00,706.00 L62.00,710.00 L62.00,714.00 L62.00,718.00 L62.00,722.00 L62.00,726.00 L62.00,730.00 L62.00,734.00 L62.00,738.00 L62.00,742.00 L62.00,746.00 L62.00,750.00 L62.00,754.00 L62.00,758.00 L62.00,762.00 L62.00,766.00 L62.00,770.00 L62.00,774.00 L62.00,778.00 L62.00,782.00 L62.00,786.00" fill="none" stroke="#f1d2d5" stroke-width="63"/><path d="M520.00,954.00 L516.00,954.00 L512.01,954.00 L508.01,954.00 L504.01,954.00 L500.02,954.00 L496.02,954.00 L492.02,954.00 L488.02,954.00 L484.03,954.00 L480.03,954.00 L476.03,954.00 L472.04,954.00 L468.04,954.00 L464.04,954.00 L460.05,954.00 L456.05,954.00 L452.05,954.00 L448.06,954.00 L444.06,954.00 L440.06,954.00 L436.06,954.00 L432.07,954.00 L428.07,954.00 L424.07,954.00 L420.08,954.00 L416.08,954.00 L412.08,954.00 L408.09,954.00 L404.09,954.00 L400.09,954.00 L396.10,954.00 L392.10,954.00 L388.10,954.00 L384.10,954.00 L380.11,954.00 L376.11,954.00 L372.11,954.00 L368.12,954.00 L364.12,954.00 L360.12,954.00 L356.13,954.00 L352.13,954.00 L348.13,954.00 L344.14,954.00 L340.14,954.00 L336.14,954.00 L332.14,954.00 L328.15,954.00 L324.15,954.00 L320.15,954.00 L316.16,954.00 L312.16,954.00 L308.16,954.00 L304.17,954.00 L300.17,954.00 L296.17,954.00 L292.18,954.00 L288.18,954.00 L284.18,954.00 L280.18,954.00 L276.19,954.00 L272.19,954.00 L268.19,954.00 L264.20,954.00 L260.20,954.00 L256.20,954.00 L252.21,954.00 L248.21,954.00 L244.21,954.00 L240.22,954.00 L236.22,954.00 L232.22,954.00 L228.23,954.00 L224.23,954.00 L220.23,954.00 L216.23,954.00 L212.24,954.00 L208.24,954.00 L204.24,954.00 L200.25,954.00 L196.25,954.00 L192.25,954.00 L188.26,954.00 L184.26,954.00 L180.26,954.00 L176.27,954.00 L172.27,954.00 L168.27,954.00 L164.27,954.00 L160.28,954.00 L156.28,954.00 L152.28,954.00 L148.29,954.00 L144.29,954.02 L140.30,954.20 L136.32,954.56 L132.36,955.12 L128.43,955.86 L124.55,956.79 L120.71,957.90 L116.93,959.20 L113.21,960.67 L109.57,962.31 L106.01,964.13 L102.54,966.12 L99.17,968.27 L95.91,970.57 L92.76,973.03 L89.73,975.64 L86.83,978.39 L84.06,981.27 L81.43,984.28 L78.95,987.41 L76.62,990.66 L74.44,994.01 L72.43,997.46 L70.59,1001.01 L68.91,1004.64 L67.41,1008.34 L66.09,1012.12 L64.95,1015.95 L63.99,1019.83 L63.22,1023.75 L62.64,1027.70 L62.24,1031.68 L62.04,1035.67 L62.02,1039.66 L62.19,1043.66 L62.56,1047.64 L63.11,1051.60 L63.85,1055.52 L64.78,1059.41 L65.89,1063.25 L67.18,1067.03 L68.65,1070.75 L70.30,1074.39 L72.11,1077.95 L74.10,1081.42 L76.24,1084.79 L78.55,1088.05 L81.00,1091.21 L83.61,1094.24 L86.35,1097.14 L89.23,1099.91 L92.24,1102.54 L95.37,1105.03 L98.62,1107.36 L101.97,1109.53 L105.43,1111.55 L108.97,1113.39 L112.60,1115.07 L116.30,1116.57 L120.07,1117.89 L123.90,1119.04 L127.78,1120.00 L131.70,1120.77 L135.66,1121.36 L139.63,1121.75 L143.62,1121.96 L147.62,1122.00 L151.62,1122.00 L155.61,1122.00 L159.61,1122.00 L163.61,1122.00 L167.60,1122.00 L171.60,1122.00 L175.60,1122.00 L179.59,1122.00 L183.59,1122.00 L187.59,1122.00 L191.59,1122.00 L195.58,1122.00 L199.58,1122.00 L203.58,1122.00 L207.57,1122.00 L211.57,1122.00 L215.57,1122.00 L219.56,1122.00 L223.56,1122.00 L227.56,1122.00 L231.55,1122.00 L235.55,1122.00 L239.55,1122.00 L243.55,1122.00 L247.54,1122.00 L251.54,1122.00 L255.54,1122.00 L259.53,1122.00 L263.53,1122.00 L267.53,1122.00 L271.52,1122.00 L275.52,1122.00 L279.52,1122.00 L283.51,1122.00 L287.51,1122.00 L291.51,1122.00 L295.51,1122.00 L299.50,1122.00 L303.50,1122.00 L307.50,1122.00 L311.49,1122.00 L315.49,1122.00 L319.49,1122.00 L323.48,1122.00 L327.48,1122.00 L331.48,1122.00 L335.47,1122.00 L339.47,1122.00 L343.47,1122.00 L347.47,1122.00 L351.46,1122.00 L355.46,1122.00 L359.46,1122.00 L363.45,1122.00 L367.45,1122.00 L371.45,1122.00 L375.44,1122.00 L379.44,1122.00 L383.44,1122.00 L387.43,1122.00 L391.43,1122.00 L395.43,1122.00 L399.43,1122.00 L403.42,1122.00 L407.42,1122.00 L411.42,1122.00 L415.41,1122.00 L419.41,1122.00 L423.41,1122.00 L427.40,1122.00 L431.40,1122.00 L435.40,1122.00 L439.39,1122.00 L443.39,1122.00 L447.39,1122.00 L451.38,1122.00 L455.38,1122.00 L459.38,1122.00 L463.38,1122.00 L467.37,1122.00 L471.37,1122.00 L475.37,1122.00 L479.36,1122.00 L483.36,1122.00 L487.36,1122.00 L491.35,1122.00 L495.35,1122.00 L499.35,1122.00 L503.34,1122.00 L507.34,1122.00 L511.34,1122.00 L515.34,1122.00 L519.33,1122.00 L523.33,1122.00 L527.33,1122.00 L531.32,1122.00 L535.32,1122.00 L539.32,1122.00 L543.31,1122.00 L547.31,1122.00 L551.31,1122.00 L555.30,1122.00 L559.30,1122.00 L563.30,1122.00 L567.30,1122.00 L571.29,1122.00 L575.29,1122.00 L579.29,1122.00 L583.28,1122.00 L587.28,1122.00 L591.28,1122.00 L595.27,1122.00 L599.27,1122.00 L603.27,1122.00 L607.26,1121.93 L611.25,1121.68 L615.22,1121.24 L619.17,1120.61 L623.08,1119.80 L626.95,1118.80 L630.77,1117.61 L634.53,1116.25 L638.21,1114.71 L641.82,1113.00 L645.35,1111.11 L648.78,1109.06 L652.11,1106.85 L655.33,1104.49 L658.43,1101.97 L661.41,1099.31 L664.27,1096.51 L666.98,1093.57 L669.55,1090.52 L671.98,1087.34 L674.25,1084.05 L676.36,1080.66 L678.30,1077.17 L680.08,1073.59 L681.69,1069.93 L683.12,1066.20 L684.37,1062.40 L685.44,1058.55 L686.33,1054.65 L687.03,1050.72 L687.54,1046.76 L687.86,1042.77 L687.99,1038.78 L688.00,1034.78 L688.00,1030.78 L688.00,1026.79 L688.00,1022.79 L688.00,1018.79 L688.00,1014.80 L688.00,1010.80 L688.00,1006.80 L688.00,1002.81 L688.00,998.81 L688.00,994.81 L688.00,990.81 L688.00,986.82 L688.00,982.82 L688.00,978.82 L688.00,974.83 L688.00,970.83 L688.00,966.83 L688.00,962.84 L688.00,958.84 L688.00,954.84 L688.00,950.85 L688.00,946.85 L688.00,942.85 L688.00,938.85 L688.00,934.86 L688.00,930.86 L688.00,926.86 L688.00,922.87 L688.00,918.87 L688.00,914.87 L688.00,910.88 L688.00,906.88 L688.00,902.88 L688.00,898.89 L688.00,894.89 L688.00,890.89 L688.00,886.89 L688.00,882.90 L688.00,878.90 L688.00,874.90 L688.00,870.91 L687.94,866.91 L687.70,862.92 L687.26,858.95 L686.64,855.00 L685.84,851.09 L684.84,847.22 L683.67,843.40 L682.31,839.64 L680.78,835.95 L679.07,832.33 L677.20,828.80 L675.16,825.37 L672.95,822.04 L670.59,818.81 L668.08,815.70 L665.43,812.71 L662.63,809.86 L659.71,807.14 L656.65,804.56 L653.48,802.13 L650.20,799.85 L646.81,797.73 L643.32,795.78 L639.75,793.99 L636.09,792.38 L632.36,790.94 L628.57,789.68 L624.72,788.60 L620.82,787.71 L616.89,787.00 L612.93,786.48 L608.95,786.15 L604.95,786.01 L600.96,786.00 L596.96,786.00 L592.96,786.00 L588.96,786.00 L584.97,786.00 L580.97,786.00 L576.97,786.00 L572.98,786.00 L568.98,786.00 L564.98,786.00 L560.99,786.00 L556.99,786.00 L552.99,786.00 L549.00,786.00 L545.00,786.00 L541.00,786.00 L537.00,786.00 L533.01,786.00 L529.01,786.00 L525.01,786.00 L521.02,786.00 L517.02,786.00 L513.02,786.00 L509.03,786.00 L505.03,786.00 L501.03,786.00 L497.04,786.00 L493.04,786.00 L489.04,786.00 L485.05,786.00 L481.05,786.00 L477.05,786.00 L473.05,786.00 L469.06,786.00 L465.06,786.00 L461.06,786.00 L457.07,786.00 L453.07,786.00 L449.07,786.00 L445.08,786.00 L441.08,786.00 L437.08,786.00 L433.09,786.00 L429.09,786.00 L425.09,786.00 L421.09,786.00 L417.10,786.00 L413.10,786.00 L409.10,786.00 L405.11,786.00 L401.11,786.00 L397.11,786.00 L393.12,786.00 L389.12,786.00 L385.12,786.00 L381.13,786.00 L377.13,786.00 L373.13,786.00 L369.13,786.00 L365.14,786.00 L361.14,786.00 L357.14,786.00 L353.15,786.00 L349.15,786.00 L345.15,786.00 L341.16,786.00 L337.16,786.00 L333.16,786.00 L329.17,786.00 L325.17,786.00 L321.17,786.00 L317.17,786.00 L313.18,785.99 L309.18,785.86 L305.20,785.53 L301.24,785.02 L297.30,784.32 L293.41,783.43 L289.56,782.36 L285.76,781.11 L282.03,779.67 L278.37,778.06 L274.79,776.28 L271.31,774.33 L267.91,772.22 L264.63,769.95 L261.45,767.52 L258.39,764.95 L255.46,762.23 L252.66,759.38 L250.00,756.40 L247.49,753.29 L245.12,750.07 L242.91,746.74 L240.87,743.31 L238.98,739.78 L237.27,736.17 L235.73,732.48 L234.37,728.73 L233.19,724.91 L232.19,721.04 L231.38,717.13 L230.75,713.18 L230.32,709.21 L230.07,705.22 L230.00,701.22 L230.00,697.23 L230.00,693.23 L230.00,689.23 L230.00,685.24 L230.00,681.24 L230.00,677.24 L230.00,673.24 L230.00,669.25 L230.00,665.25 L230.00,661.25 L230.00,657.26 L230.00,653.26 L230.00,649.26 L230.05,645.27 L230.28,641.28 L230.69,637.30 L231.29,633.35 L232.08,629.43 L233.06,625.56 L234.22,621.73 L235.56,617.97 L237.07,614.27 L238.77,610.65 L240.63,607.11 L242.66,603.67 L244.84,600.33 L247.19,597.09 L249.69,593.97 L252.33,590.97 L255.11,588.11 L258.03,585.37 L261.07,582.78 L264.23,580.34 L267.51,578.05 L270.89,575.91 L274.37,573.94 L277.93,572.14 L281.58,570.51 L285.30,569.06 L289.09,567.78 L292.93,566.69 L296.83,565.78 L300.76,565.06 L304.72,564.52 L308.70,564.17 L312.69,564.02 L316.69,564.00 L320.69,564.00 L324.68,564.00 L328.68,564.00 L332.68,564.00 L336.67,564.00 L340.67,564.00 L344.67,564.00 L348.66,564.00 L352.66,564.00 L356.66,564.00 L360.65,564.00 L364.65,564.00 L368.65,564.00 L372.65,564.00 L376.64,564.00 L380.64,564.00 L384.64,564.00 L388.63,564.00 L392.63,564.00 L396.63,564.00 L400.62,564.00 L404.62,564.00 L408.62,564.00 L412.61,564.00 L416.61,564.00 L420.61,564.00 L424.61,564.00 L428.60,564.00 L432.60,564.00 L436.60,563.99 L440.59,563.87 L444.57,563.56 L448.54,563.05 L452.48,562.36 L456.37,561.49 L460.23,560.43 L464.03,559.18 L467.76,557.76 L471.42,556.16 L475.01,554.39 L478.50,552.45 L481.90,550.35 L485.19,548.08 L488.37,545.67 L491.44,543.10 L494.38,540.39 L497.18,537.55 L499.85,534.57 L502.38,531.47 L504.75,528.26 L506.97,524.93 L509.02,521.51 L510.91,517.99 L512.64,514.38 L514.19,510.70 L515.56,506.94 L516.75,503.13 L517.76,499.26 L518.58,495.35 L519.22,491.40 L519.67,487.43 L519.92,483.45 L519.99,479.45 L519.87,475.46 L519.56,471.47 L519.06,467.51 L518.37,463.57 L517.50,459.67 L516.44,455.82 L515.20,452.02 L513.78,448.28 L512.18,444.62 L510.41,441.04 L508.47,437.54 L506.37,434.14 L504.11,430.85 L501.70,427.66 L499.13,424.60 L496.42,421.66 L493.58,418.85 L490.61,416.18 L487.51,413.65 L484.30,411.28 L480.97,409.06 L477.55,407.00 L474.03,405.11 L470.42,403.38 L466.74,401.83 L462.99,400.46 L459.17,399.26 L455.31,398.25 L451.39,397.43 L447.45,396.79 L443.48,396.34 L439.49,396.08 L435.50,396.00 L431.50,396.00 L427.50,396.00 L423.50,396.00 L419.51,396.00 L415.51,396.00 L411.51,396.00 L407.52,396.00 L403.52,396.00 L399.52,396.00 L395.53,396.00 L391.53,396.00 L387.53,396.00 L383.54,396.00 L379.54,396.00 L375.54,396.00 L371.54,396.00 L367.55,396.00 L363.55,396.00 L359.55,396.00 L355.56,396.00 L351.56,396.00 L347.56,396.00 L343.57,396.00 L339.57,396.00 L335.57,396.00 L331.58,396.00 L327.58,396.00 L323.58,396.00 L319.58,396.00 L315.59,396.00 L311.59,396.00 L307.59,396.00 L303.60,396.00 L299.60,396.00 L295.60,396.00 L291.61,396.00 L287.61,396.00 L283.61,396.00 L279.62,396.00 L275.62,396.00 L271.62,396.00 L267.62,396.00 L263.63,396.00 L259.63,396.00 L255.63,396.00 L251.64,396.00 L247.64,396.00 L243.64,396.00 L239.65,396.00 L235.65,396.00 L231.65,396.00 L227.66,396.00 L223.66,396.00 L219.66,396.00 L215.66,396.00 L211.67,396.00 L207.67,396.00 L203.67,396.00 L199.68,396.00 L195.68,396.00 L191.68,396.00 L187.69,396.00 L183.69,396.00 L179.69,396.00 L175.70,396.00 L171.70,396.00 L167.70,396.00 L163.70,396.00 L159.71,396.00 L155.71,396.00 L151.71,396.00 L147.72,396.00 L143.72,396.03 L139.73,396.24 L135.75,396.63 L131.80,397.21 L127.88,397.98 L124.00,398.94 L120.16,400.07 L116.39,401.39 L112.69,402.89 L109.06,404.56 L105.51,406.41 L102.06,408.41 L98.70,410.59 L95.45,412.91 L92.32,415.39 L89.31,418.02 L86.42,420.79 L83.67,423.69 L81.07,426.72 L78.60,429.87 L76.30,433.13 L74.15,436.50 L72.16,439.96 L70.34,443.52 L68.69,447.16 L67.21,450.88 L65.92,454.66 L64.80,458.50 L63.87,462.38 L63.13,466.31 L62.57,470.27 L62.20,474.24 L62.02,478.24 L62.00,482.23 L62.00,486.23 L62.00,490.23 L62.00,494.23 L62.00,498.22 L62.00,502.22 L62.00,506.22 L62.00,510.21 L62.00,514.21 L62.00,518.21 L62.00,522.20 L62.00,526.20 L62.00,530.20 L62.00,534.19 L62.00,538.19 L62.00,542.19 L62.00,546.18 L62.00,550.18 L62.00,554.18 L62.00,558.18 L62.00,562.17 L62.00,566.17 L62.00,570.17 L62.00,574.16 L62.00,578.16 L62.00,582.16 L62.00,586.15 L62.00,590.15 L62.00,594.15 L62.00,598.14 L62.00,602.14 L62.00,606.14 L62.00,610.14 L62.00,614.13 L62.00,618.13 L62.00,622.13 L62.00,626.12 L62.00,630.12 L62.00,634.12 L62.00,638.11 L62.00,642.11 L62.00,646.11 L62.00,650.10 L62.00,654.10 L62.00,658.10 L62.00,662.10 L62.00,666.09 L62.00,670.09 L62.00,674.09 L62.00,678.08 L62.00,682.08 L62.00,686.08 L62.00,690.07 L62.00,694.07 L62.00,698.07 L62.00,702.06 L62.00,706.06 L62.00,710.06 L62.00,714.06 L62.00,718.05 L62.00,722.05 L62.00,726.05 L62.00,730.04 L62.00,734.04 L62.00,738.04 L62.00,742.03 L62.00,746.03 L62.00,750.03 L62.00,754.02 L62.00,758.02 L62.00,762.02 L62.00,766.02 L62.00,770.01 L62.00,774.01 L62.00,778.01 L62.00,782.00 L62.00,786.00" fill="none" stroke="#94a3b8" stroke-width="2" stroke-dasharray="7 9"/><path d="M-12,-10 L12,0 L-12,10" fill="none" stroke="#334155" stroke-width="5" transform="translate(456 954) rotate(180)"/><path d="M-12,-10 L12,0 L-12,10" fill="none" stroke="#334155" stroke-width="5" transform="translate(256 954) rotate(180)"/><path d="M-12,-10 L12,0 L-12,10" fill="none" stroke="#334155" stroke-width="5" transform="translate(72.25699517741253 997.7769459815735) rotate(117.4821973619467)"/><path d="M-12,-10 L12,0 L-12,10" fill="none" stroke="#334155" stroke-width="5" transform="translate(172.11244535832884 1122) rotate(0)"/><path d="M-12,-10 L12,0 L-12,10" fill="none" stroke="#334155" stroke-width="5" transform="translate(372.11244535832884 1122) rotate(0)"/><path d="M-12,-10 L12,0 L-12,10" fill="none" stroke="#334155" stroke-width="5" transform="translate(572.1124453583288 1122) rotate(0)"/><path d="M-12,-10 L12,0 L-12,10" fill="none" stroke="#334155" stroke-width="5" transform="translate(688 1001.8313319625076) rotate(-90)"/><path d="M-12,-10 L12,0 L-12,10" fill="none" stroke="#334155" stroke-width="5" transform="translate(661.8219917455682 809.0716713296431) rotate(-137.59021338019699)"/><path d="M-12,-10 L12,0 L-12,10" fill="none" stroke="#334155" stroke-width="5" transform="translate(467.7751092833464 786) rotate(180)"/><path d="M-12,-10 L12,0 L-12,10" fill="none" stroke="#334155" stroke-width="5" transform="translate(270.07347323675765 773.5963075864456) rotate(-147.3884892490217)"/><path d="M-12,-10 L12,0 L-12,10" fill="none" stroke="#334155" stroke-width="5" transform="translate(250.72060505859434 592.7623394345542) rotate(-47.81476723575113)"/><path d="M-12,-10 L12,0 L-12,10" fill="none" stroke="#334155" stroke-width="5" transform="translate(442.33120449187953 563.757697450764) rotate(-5.38215276227224)"/><path d="M-12,-10 L12,0 L-12,10" fill="none" stroke="#334155" stroke-width="5" transform="translate(489.15099160517576 414.95922056632133) rotate(-141.78451177252623)"/><path d="M-12,-10 L12,0 L-12,10" fill="none" stroke="#334155" stroke-width="5" transform="translate(293.55021856670464 396) rotate(180)"/><path d="M-12,-10 L12,0 L-12,10" fill="none" stroke="#334155" stroke-width="5" transform="translate(96.89408167419693 411.85392127514666) rotate(143.19419075646235)"/><path d="M-12,-10 L12,0 L-12,10" fill="none" stroke="#334155" stroke-width="5" transform="translate(62 600.5060041124552) rotate(90)"/><circle cx="375" cy="675" r="108" fill="#f8fafc" stroke="#8193aa" stroke-width="3" stroke-dasharray="9 8"/><circle cx="375" cy="675" r="52" fill="#263954"/><path d="M375,625 L363,645 L387,645Z" fill="white"/><text x="375" y="688" text-anchor="middle" fill="white" font-size="27">360°</text><g transform="translate(520 954) rotate(180)"><path d="M0,-40 H-40 V40 H0" fill="#fff" stroke="#087f6d" stroke-width="7"/><path d="M0,-39 V39" stroke="#087f6d" stroke-width="3" stroke-dasharray="5 5"/><circle r="5" fill="#087f6d"/></g><text x="540" y="962" text-anchor="middle" font-size="23" font-weight="700" fill="#087f6d">S</text><g transform="translate(62 786) rotate(90)"><path d="M0,-40 H40 V40 H0" fill="#fff" stroke="#ad3544" stroke-width="7"/><path d="M0,-39 V39" stroke="#ad3544" stroke-width="3" stroke-dasharray="5 5"/><circle r="5" fill="#ad3544"/></g><text x="62" y="814" text-anchor="middle" font-size="23" font-weight="700" fill="#ad3544">L</text><text x="26" y="1202" font-size="17">路长 3249.5px · 最小曲率 84px · 中央净距 111px</text><text x="26" y="1232" font-size="17">轨距 145.5px · 轨宽 72px · 猫径 56px · 猫间距 58px</text><text x="26" y="1262" font-size="17" fill="#64358a">双层方向 257° · 三层方向 70° · 静态压力 73.1</text><text x="26" y="1290" font-size="16" fill="#087f6d">几何：通过 · 用户待审；压力指标不是实际通关率</text><text x="26" y="1315" font-size="14" fill="#59687d">红色末段为最后 140px。源哈希 71adec4a6813cfde</text></g></svg>