<svg xmlns="http://www.w3.org/2000/svg" width="750" height="1334" viewBox="0 0 750 1334">
  <rect width="750" height="1334" fill="#f7f4ee"/>
  <rect y="190" width="750" height="970" fill="#ffffff"/>
  <text x="42" y="72" style="font:700 30px sans-serif;fill:#312d29">P14 / LEVELS 66-70</text>
  <text x="42" y="112" style="font:18px sans-serif;fill:#665f57">ONE-WAY TRACK: SOURCE TO LAIR</text>
  <path d="M 667.1 551.4 L 663.8 538.4 L 660.3 525.5 L 656.4 512.9 L 652.3 500.5 L 647.9 488.3 L 643.2 476.3 L 638.3 464.7 L 633.1 453.2 L 627.7 442.1 L 622.0 431.3 L 616.0 420.7 L 609.9 410.5 L 603.5 400.6 L 596.9 391.0 L 590.1 381.8 L 583.1 373.0 L 575.9 364.5 L 568.5 356.3 L 561.0 348.6 L 553.2 341.3 L 545.4 334.3 L 537.4 327.8 L 529.2 321.7 L 520.9 316.0 L 512.5 310.7 L 504.0 305.9 L 495.5 301.4 L 486.8 297.5 L 478.1 293.9 L 469.3 290.8 L 460.5 288.2 L 451.6 285.9 L 442.7 284.2 L 433.8 282.8 L 424.9 281.9 L 416.0 281.5 L 407.1 281.4 L 398.2 281.8 L 389.4 282.6 L 380.6 283.9 L 371.9 285.5 L 363.3 287.6 L 354.7 290.1 L 346.3 292.9 L 337.9 296.2 L 329.6 299.8 L 321.5 303.8 L 313.4 308.2 L 305.5 312.9 L 297.7 318.0 L 290.1 323.4 L 282.6 329.1 L 275.2 335.2 L 268.1 341.6 L 261.0 348.3 L 254.2 355.2 L 247.5 362.5 L 241.0 370.0 L 234.7 377.8 L 228.6 385.9 L 222.7 394.2 L 217.0 402.7 L 211.4 411.5 L 206.1 420.4 L 201.0 429.6 L 196.1 439.0 L 191.4 448.6 L 186.9 458.4 L 182.6 468.3 L 178.6 478.4 L 174.8 488.7 L 171.2 499.1 L 167.9 509.6 L 164.8 520.3 L 161.9 531.1 L 159.3 542.0 L 156.9 553.0 L 154.8 564.1 L 152.9 575.2 L 151.3 586.5 L 149.9 597.8 L 148.7 609.1 L 147.9 620.4 L 147.2 631.8 L 146.9 643.2 L 146.8 654.6 L 147.0 666.0 L 147.4 677.4 L 148.1 688.7 L 149.0 699.9 L 150.2 711.2 L 151.7 722.3 L 153.4 733.3 L 155.4 744.3 L 157.7 755.1 L 160.2 765.8 L 162.9 776.3 L 165.9 786.7 L 169.1 797.0 L 172.6 807.0 L 176.3 816.9 L 180.3 826.5 L 184.4 836.0 L 188.8 845.2 L 193.4 854.1 L 198.2 862.9 L 203.3 871.3 L 208.4 879.5 L 213.8 887.4 L 219.4 895.0 L 225.1 902.3 L 231.0 909.3 L 237.0 916.0 L 243.2 922.3 L 249.5 928.4 L 255.9 934.1 L 262.5 939.4 L 269.1 944.4 L 275.8 949.1 L 282.6 953.5 L 289.5 957.4 L 296.5 961.1 L 303.5 964.3 L 310.5 967.3 L 317.6 969.8 L 324.7 972.1 L 331.8 974.0 L 339.0 975.5 L 346.1 976.7 L 353.2 977.6 L 360.3 978.1 L 367.4 978.3 L 374.4 978.1 L 381.4 977.7 L 388.4 976.9 L 395.3 975.8 L 402.1 974.4 L 408.9 972.7 L 415.6 970.7 L 422.2 968.5 L 428.7 965.9 L 435.1 963.1 L 441.5 960.0 L 447.7 956.6 L 453.8 953.0 L 459.8 949.1 L 465.7 945.0 L 471.5 940.6 L 477.2 936.1 L 482.7 931.2 L 488.1 926.2 L 493.4 921.0 L 498.5 915.5 L 503.5 909.9 L 508.3 904.0 L 513.0 898.0 L 517.6 891.7 L 522.0 885.3 L 526.2 878.8 L 530.3 872.0 L 534.2 865.1 L 537.9 858.1 L 541.5 850.9 L 544.9 843.6 L 548.1 836.1 L 551.1 828.5 L 554.0 820.8 L 556.7 813.0 L 559.2 805.1 L 561.5 797.1 L 563.6 789.0 L 565.5 780.8 L 567.2 772.6 L 568.7 764.2 L 570.0 755.9 L 571.1 747.5 L 572.0 739.0 L 572.7 730.6 L 573.2 722.1 L 573.5 713.6 L 573.6 705.1 L 573.5 696.6 L 573.2 688.2 L 572.7 679.7 L 571.9 671.4 L 571.0 663.0 L 569.9 654.8 L 568.5 646.6 L 567.0 638.5 L 565.3 630.5 L 563.3 622.6 L 561.2 614.8 L 558.9 607.1 L 556.5 599.5 L 553.8 592.1 L 551.0 584.8 L 548.0 577.7 L 544.8 570.8 L 541.5 564.0 L 538.0 557.4 L 534.4 551.0 L 530.6 544.8 L 526.7 538.7 L 522.7 532.9 L 518.5 527.3 L 514.3 521.9 L 509.9 516.7 L 505.4 511.7 L 500.8 507.0 L 496.1 502.4 L 491.3 498.1 L 486.5 494.1 L 481.5 490.3 L 476.5 486.7 L 471.5 483.3 L 466.4 480.2 L 461.2 477.4 L 456.0 474.7 L 450.8 472.3 L 445.5 470.2 L 440.2 468.3 L 434.9 466.6 L 429.6 465.2 L 424.2 464.0 L 418.9 463.0 L 413.6 462.3 L 408.2 461.8 L 402.9 461.5 L 397.7 461.5 L 392.4 461.7 L 387.2 462.1 L 381.9 462.7 L 376.8 463.6 L 371.7 464.6 L 366.6 465.9 L 361.6 467.4 L 356.6 469.1 L 351.7 471.0 L 346.9 473.1 L 342.1 475.3" fill="none" stroke="#d4c1a0" stroke-width="92" stroke-linecap="round" stroke-linejoin="round"/>
  <path d="M 667.1 551.4 L 663.8 538.4 L 660.3 525.5 L 656.4 512.9 L 652.3 500.5 L 647.9 488.3 L 643.2 476.3 L 638.3 464.7 L 633.1 453.2 L 627.7 442.1 L 622.0 431.3 L 616.0 420.7 L 609.9 410.5 L 603.5 400.6 L 596.9 391.0 L 590.1 381.8 L 583.1 373.0 L 575.9 364.5 L 568.5 356.3 L 561.0 348.6 L 553.2 341.3 L 545.4 334.3 L 537.4 327.8 L 529.2 321.7 L 520.9 316.0 L 512.5 310.7 L 504.0 305.9 L 495.5 301.4 L 486.8 297.5 L 478.1 293.9 L 469.3 290.8 L 460.5 288.2 L 451.6 285.9 L 442.7 284.2 L 433.8 282.8 L 424.9 281.9 L 416.0 281.5 L 407.1 281.4 L 398.2 281.8 L 389.4 282.6 L 380.6 283.9 L 371.9 285.5 L 363.3 287.6 L 354.7 290.1 L 346.3 292.9 L 337.9 296.2 L 329.6 299.8 L 321.5 303.8 L 313.4 308.2 L 305.5 312.9 L 297.7 318.0 L 290.1 323.4 L 282.6 329.1 L 275.2 335.2 L 268.1 341.6 L 261.0 348.3 L 254.2 355.2 L 247.5 362.5 L 241.0 370.0 L 234.7 377.8 L 228.6 385.9 L 222.7 394.2 L 217.0 402.7 L 211.4 411.5 L 206.1 420.4 L 201.0 429.6 L 196.1 439.0 L 191.4 448.6 L 186.9 458.4 L 182.6 468.3 L 178.6 478.4 L 174.8 488.7 L 171.2 499.1 L 167.9 509.6 L 164.8 520.3 L 161.9 531.1 L 159.3 542.0 L 156.9 553.0 L 154.8 564.1 L 152.9 575.2 L 151.3 586.5 L 149.9 597.8 L 148.7 609.1 L 147.9 620.4 L 147.2 631.8 L 146.9 643.2 L 146.8 654.6 L 147.0 666.0 L 147.4 677.4 L 148.1 688.7 L 149.0 699.9 L 150.2 711.2 L 151.7 722.3 L 153.4 733.3 L 155.4 744.3 L 157.7 755.1 L 160.2 765.8 L 162.9 776.3 L 165.9 786.7 L 169.1 797.0 L 172.6 807.0 L 176.3 816.9 L 180.3 826.5 L 184.4 836.0 L 188.8 845.2 L 193.4 854.1 L 198.2 862.9 L 203.3 871.3 L 208.4 879.5 L 213.8 887.4 L 219.4 895.0 L 225.1 902.3 L 231.0 909.3 L 237.0 916.0 L 243.2 922.3 L 249.5 928.4 L 255.9 934.1 L 262.5 939.4 L 269.1 944.4 L 275.8 949.1 L 282.6 953.5 L 289.5 957.4 L 296.5 961.1 L 303.5 964.3 L 310.5 967.3 L 317.6 969.8 L 324.7 972.1 L 331.8 974.0 L 339.0 975.5 L 346.1 976.7 L 353.2 977.6 L 360.3 978.1 L 367.4 978.3 L 374.4 978.1 L 381.4 977.7 L 388.4 976.9 L 395.3 975.8 L 402.1 974.4 L 408.9 972.7 L 415.6 970.7 L 422.2 968.5 L 428.7 965.9 L 435.1 963.1 L 441.5 960.0 L 447.7 956.6 L 453.8 953.0 L 459.8 949.1 L 465.7 945.0 L 471.5 940.6 L 477.2 936.1 L 482.7 931.2 L 488.1 926.2 L 493.4 921.0 L 498.5 915.5 L 503.5 909.9 L 508.3 904.0 L 513.0 898.0 L 517.6 891.7 L 522.0 885.3 L 526.2 878.8 L 530.3 872.0 L 534.2 865.1 L 537.9 858.1 L 541.5 850.9 L 544.9 843.6 L 548.1 836.1 L 551.1 828.5 L 554.0 820.8 L 556.7 813.0 L 559.2 805.1 L 561.5 797.1 L 563.6 789.0 L 565.5 780.8 L 567.2 772.6 L 568.7 764.2 L 570.0 755.9 L 571.1 747.5 L 572.0 739.0 L 572.7 730.6 L 573.2 722.1 L 573.5 713.6 L 573.6 705.1 L 573.5 696.6 L 573.2 688.2 L 572.7 679.7 L 571.9 671.4 L 571.0 663.0 L 569.9 654.8 L 568.5 646.6 L 567.0 638.5 L 565.3 630.5 L 563.3 622.6 L 561.2 614.8 L 558.9 607.1 L 556.5 599.5 L 553.8 592.1 L 551.0 584.8 L 548.0 577.7 L 544.8 570.8 L 541.5 564.0 L 538.0 557.4 L 534.4 551.0 L 530.6 544.8 L 526.7 538.7 L 522.7 532.9 L 518.5 527.3 L 514.3 521.9 L 509.9 516.7 L 505.4 511.7 L 500.8 507.0 L 496.1 502.4 L 491.3 498.1 L 486.5 494.1 L 481.5 490.3 L 476.5 486.7 L 471.5 483.3 L 466.4 480.2 L 461.2 477.4 L 456.0 474.7 L 450.8 472.3 L 445.5 470.2 L 440.2 468.3 L 434.9 466.6 L 429.6 465.2 L 424.2 464.0 L 418.9 463.0 L 413.6 462.3 L 408.2 461.8 L 402.9 461.5 L 397.7 461.5 L 392.4 461.7 L 387.2 462.1 L 381.9 462.7 L 376.8 463.6 L 371.7 464.6 L 366.6 465.9 L 361.6 467.4 L 356.6 469.1 L 351.7 471.0 L 346.9 473.1 L 342.1 475.3" fill="none" stroke="#5c5148" stroke-width="7" stroke-dasharray="18 14" stroke-linecap="round"/>
  <polygon points="-16,-11 18,0 -16,11" transform="translate(398.2 281.8) rotate(174.7)" fill="#5c5148"/><polygon points="-16,-11 18,0 -16,11" transform="translate(159.3 542.0) rotate(102.2)" fill="#5c5148"/><polygon points="-16,-11 18,0 -16,11" transform="translate(249.5 928.4) rotate(41.6)" fill="#5c5148"/><polygon points="-16,-11 18,0 -16,11" transform="translate(498.5 915.5) rotate(-48.6)" fill="#5c5148"/><polygon points="-16,-11 18,0 -16,11" transform="translate(561.2 614.8) rotate(-106.6)" fill="#5c5148"/>
  <circle cx="375" cy="675" r="108" fill="#fff" stroke="#2563a5" stroke-width="8"/>
  <text x="375" y="684" text-anchor="middle" style="font:700 26px sans-serif;fill:#2563a5">360° SHOOTER</text>
  <circle cx="667.1251074536926" cy="551.384454692706" r="42" fill="#3a8f62" stroke="#fff" stroke-width="7"/>
  <text x="667.1251074536926" y="561.384454692706" text-anchor="middle" style="font:700 28px sans-serif;fill:#fff">S</text>
  <circle cx="342.11823662322576" cy="475.34062782039047" r="42" fill="#bf493d" stroke="#fff" stroke-width="7"/>
  <text x="342.11823662322576" y="485.34062782039047" text-anchor="middle" style="font:700 28px sans-serif;fill:#fff">L</text>
  <text x="375" y="1260" text-anchor="middle" style="font:18px sans-serif;fill:#665f57">LOCK TOPOLOGY, ENDPOINTS, DIRECTION AND CENTER SHOOTER</text>
  </svg>